<?xml version="1.0" encoding="UTF-8"?>
<svg xmlns="http://www.w3.org/2000/svg" xmlns:xlink="http://www.w3.org/1999/xlink" width="31pt" height="30pt" viewBox="0 0 31 30" version="1.1">
<g id="surface1">
<path style=" stroke:none;fill-rule:nonzero;fill:rgb(0,0,0);fill-opacity:1;" d="M 7.941406 5.542969 C 6.394531 7.875 6.585938 10.910156 7.765625 13.386719 L 7.851562 13.5625 L 7.910156 13.675781 C 7.921875 13.695312 7.933594 13.71875 7.945312 13.738281 C 7.964844 13.777344 7.988281 13.816406 8.003906 13.855469 L 8.117188 14.058594 L 8.183594 14.167969 L 8.3125 14.382812 L 8.371094 14.472656 C 8.429688 14.570312 8.496094 14.667969 8.5625 14.761719 C 8.5625 14.761719 8.566406 14.765625 8.566406 14.769531 C 8.578125 14.785156 8.589844 14.796875 8.597656 14.8125 C 8.652344 14.894531 8.714844 14.976562 8.773438 15.054688 L 8.835938 15.140625 L 8.996094 15.347656 L 9.058594 15.425781 C 9.128906 15.515625 9.203125 15.601562 9.28125 15.691406 L 9.285156 15.695312 C 9.289062 15.699219 9.289062 15.703125 9.292969 15.707031 C 9.367188 15.789062 9.441406 15.875 9.519531 15.957031 L 9.59375 16.03125 L 9.773438 16.21875 L 9.847656 16.292969 C 9.929688 16.371094 10.011719 16.449219 10.09375 16.527344 L 10.140625 16.570312 L 10.367188 16.769531 L 10.460938 16.847656 L 10.648438 16.996094 L 10.746094 17.078125 L 11.035156 17.292969 C 11.039062 17.296875 11.046875 17.304688 11.054688 17.308594 C 11.121094 17.359375 11.191406 17.402344 11.257812 17.449219 L 11.347656 17.511719 L 11.667969 17.71875 L 11.753906 17.769531 L 11.996094 17.910156 C 12.039062 17.9375 12.085938 17.960938 12.128906 17.984375 L 12.300781 18.074219 L 12.410156 18.128906 L 12.683594 18.261719 L 12.742188 18.292969 C 12.84375 18.339844 12.953125 18.386719 13.058594 18.429688 L 13.136719 18.460938 L 13.433594 18.578125 L 13.472656 18.59375 C 13.582031 18.632812 13.695312 18.671875 13.804688 18.707031 L 13.886719 18.730469 C 14.003906 18.769531 14.113281 18.8125 14.230469 18.835938 C 21.71875 20.269531 23.890625 14.121094 23.890625 14.121094 C 22.066406 16.617188 18.824219 17.273438 15.753906 16.542969 C 15.636719 16.511719 15.523438 16.476562 15.410156 16.441406 L 15.324219 16.410156 C 15.214844 16.375 15.105469 16.335938 14.996094 16.296875 L 14.949219 16.28125 C 14.851562 16.246094 14.753906 16.207031 14.660156 16.167969 L 14.578125 16.132812 C 14.472656 16.089844 14.367188 16.042969 14.261719 15.996094 L 14.199219 15.96875 L 13.933594 15.839844 L 13.859375 15.800781 C 13.789062 15.765625 13.722656 15.726562 13.652344 15.691406 L 13.515625 15.613281 C 13.433594 15.566406 13.351562 15.519531 13.273438 15.46875 L 13.1875 15.421875 C 13.082031 15.355469 12.972656 15.285156 12.867188 15.21875 C 12.839844 15.199219 12.8125 15.175781 12.78125 15.15625 L 12.554688 14.996094 L 12.480469 14.945312 L 12.265625 14.78125 L 12.171875 14.707031 L 11.976562 14.546875 L 11.890625 14.472656 L 11.648438 14.261719 C 11.640625 14.253906 11.628906 14.246094 11.617188 14.238281 C 11.53125 14.160156 11.449219 14.078125 11.363281 13.996094 L 11.292969 13.925781 L 11.109375 13.738281 L 11.039062 13.660156 C 10.960938 13.578125 10.886719 13.496094 10.8125 13.414062 C 10.8125 13.410156 10.808594 13.40625 10.804688 13.402344 C 10.726562 13.3125 10.648438 13.222656 10.574219 13.128906 L 10.515625 13.054688 L 10.351562 12.84375 L 10.292969 12.765625 L 10.101562 12.5 C 8.398438 10.0625 7.789062 6.699219 9.148438 3.9375 M 12.746094 3.578125 C 11.628906 5.265625 11.6875 7.527344 12.5625 9.3125 C 12.707031 9.613281 12.871094 9.902344 13.054688 10.179688 C 13.222656 10.433594 13.410156 10.734375 13.632812 10.933594 C 13.714844 11.023438 13.796875 11.117188 13.882812 11.207031 C 13.90625 11.230469 13.929688 11.253906 13.949219 11.277344 C 14.035156 11.363281 14.121094 11.445312 14.207031 11.527344 C 14.210938 11.53125 14.214844 11.53125 14.21875 11.535156 C 14.316406 11.625 14.417969 11.714844 14.519531 11.796875 L 14.585938 11.855469 C 14.691406 11.9375 14.792969 12.015625 14.902344 12.09375 C 14.902344 12.097656 14.90625 12.097656 14.910156 12.101562 C 14.957031 12.136719 15.003906 12.167969 15.050781 12.199219 C 15.074219 12.214844 15.097656 12.230469 15.121094 12.246094 C 15.195312 12.296875 15.273438 12.347656 15.351562 12.394531 L 15.386719 12.417969 L 15.589844 12.535156 C 15.613281 12.550781 15.640625 12.5625 15.664062 12.578125 L 15.808594 12.65625 C 15.816406 12.660156 15.824219 12.660156 15.832031 12.664062 C 15.929688 12.714844 16.03125 12.765625 16.132812 12.8125 C 16.152344 12.820312 16.175781 12.832031 16.199219 12.839844 C 16.277344 12.875 16.359375 12.910156 16.445312 12.945312 L 16.550781 12.984375 C 16.625 13.015625 16.699219 13.042969 16.773438 13.066406 L 16.875 13.101562 C 16.984375 13.136719 17.089844 13.179688 17.203125 13.199219 C 22.980469 14.203125 24.316406 9.539062 24.316406 9.539062 C 23.113281 11.355469 20.785156 12.222656 18.300781 11.546875 C 18.1875 11.515625 18.078125 11.480469 17.972656 11.445312 C 17.9375 11.433594 17.90625 11.425781 17.875 11.414062 C 17.796875 11.390625 17.71875 11.363281 17.644531 11.332031 L 17.542969 11.292969 C 17.457031 11.261719 17.375 11.222656 17.296875 11.1875 C 17.273438 11.179688 17.25 11.167969 17.226562 11.160156 C 17.125 11.113281 17.027344 11.0625 16.925781 11.011719 C 16.875 10.984375 16.824219 10.957031 16.777344 10.929688 L 16.6875 10.882812 C 16.625 10.847656 16.558594 10.808594 16.496094 10.769531 L 16.453125 10.742188 C 16.375 10.691406 16.296875 10.644531 16.21875 10.59375 C 16.195312 10.578125 16.171875 10.5625 16.148438 10.542969 L 16 10.4375 C 15.894531 10.363281 15.789062 10.28125 15.6875 10.199219 L 15.617188 10.140625 C 14.53125 9.242188 13.667969 8.011719 13.257812 6.613281 C 12.828125 5.167969 12.921875 3.542969 13.667969 2.226562 M 16.785156 2.109375 C 16.128906 3.128906 16.0625 4.394531 16.523438 5.515625 C 17.007812 6.710938 17.996094 7.648438 19.148438 8.089844 C 19.199219 8.109375 19.246094 8.125 19.296875 8.144531 L 19.359375 8.164062 C 19.429688 8.1875 19.496094 8.210938 19.566406 8.226562 C 22.757812 8.871094 23.621094 6.507812 23.851562 6.160156 C 23.09375 7.304688 21.820312 7.582031 20.257812 7.183594 C 20.132812 7.152344 19.996094 7.105469 19.875 7.0625 C 19.722656 7.003906 19.574219 6.9375 19.425781 6.863281 C 19.148438 6.726562 18.882812 6.554688 18.640625 6.359375 C 17.238281 5.25 16.367188 3.125 17.28125 1.394531 "/>
<path style=" stroke:none;fill-rule:nonzero;fill:rgb(0,0,0);fill-opacity:1;" d="M 9.738281 23.726562 L 9.523438 24.515625 Z M 10.851562 25.4375 L 10.613281 25.4375 Z M 10.792969 26.617188 L 9.367188 26.621094 Z M 11.09375 25.441406 L 10.855469 25.4375 Z M 10.921875 26.515625 L 11.171875 25.539062 Z M 16.175781 22.019531 L 15.710938 24.261719 Z M 14.984375 22.019531 L 14.632812 23.695312 Z M 14.984375 22.019531 "/>
<path style=" stroke:none;fill-rule:nonzero;fill:rgb(0,0,0);fill-opacity:1;" d="M 16.09375 21.917969 L 15.101562 21.917969 C 15.046875 21.917969 14.992188 21.964844 14.980469 22.019531 L 14.277344 25.371094 C 14.265625 25.425781 14.210938 25.46875 14.15625 25.46875 L 13.457031 25.46875 C 12.761719 25.46875 12.84375 24.976562 12.988281 24.300781 L 12.992188 24.28125 L 13.074219 23.816406 L 13.113281 23.628906 L 13.433594 22.019531 C 13.441406 21.964844 13.40625 21.917969 13.351562 21.917969 L 12.335938 21.917969 C 12.277344 21.921875 12.226562 21.960938 12.214844 22.019531 L 11.757812 24.253906 C 11.503906 25.4375 11.570312 26.566406 12.941406 26.601562 L 12.980469 26.605469 L 15.128906 26.605469 C 15.183594 26.605469 15.238281 26.558594 15.25 26.503906 L 16.175781 22.019531 C 16.1875 21.964844 16.152344 21.917969 16.097656 21.917969 Z M 20.042969 25.480469 C 20.097656 25.480469 20.132812 25.527344 20.125 25.582031 L 20.027344 26.066406 M 19.933594 26.550781 L 20.027344 26.066406 Z M 19.8125 26.652344 L 17.984375 26.664062 Z M 19.8125 26.652344 "/>
<path style=" stroke:none;fill-rule:nonzero;fill:rgb(0,0,0);fill-opacity:1;" d="M 17.394531 24.859375 C 17.394531 24.804688 17.453125 24.714844 17.507812 24.714844 L 17.382812 24.710938 C 17.324219 25.289062 17.394531 24.859375 17.394531 24.859375 Z M 18.074219 26.660156 L 18.058594 26.660156 Z M 20.042969 25.480469 C 20.097656 25.480469 20.132812 25.527344 20.125 25.582031 L 20.011719 26.144531 M 18.542969 26.664062 L 18.539062 26.664062 Z M 18.300781 26.660156 L 18.289062 26.660156 Z M 18.226562 26.660156 L 18.203125 26.660156 Z M 18.15625 26.660156 L 18.132812 26.660156 Z M 18.289062 26.660156 L 18.230469 26.660156 Z M 18.289062 26.660156 "/>
<path style=" stroke:none;fill-rule:nonzero;fill:rgb(0,0,0);fill-opacity:1;" d="M 18.542969 26.664062 L 18.300781 26.664062 Z M 19.8125 26.65625 L 18.542969 26.664062 Z M 19.929688 26.550781 L 20.007812 26.144531 Z M 18.203125 26.660156 L 18.15625 26.660156 L 18.207031 26.660156 Z M 18.054688 26.660156 L 17.984375 26.660156 Z M 18.132812 26.660156 L 18.074219 26.660156 Z M 3.640625 24.871094 L 3.792969 24.167969 L 3.617188 24.972656 L 3.597656 25.070312 Z M 5.484375 21.90625 L 4.394531 21.90625 C 4.335938 21.910156 4.289062 21.949219 4.273438 22.007812 L 4.066406 22.941406 C 4.058594 22.96875 4.0625 22.996094 4.078125 23.015625 C 4.09375 23.035156 4.121094 23.046875 4.144531 23.042969 L 5.242188 23.042969 C 5.296875 23.042969 5.351562 23 5.363281 22.941406 L 5.5625 22.007812 C 5.574219 21.949219 5.539062 21.90625 5.480469 21.90625 Z M 5.246094 23.464844 L 4.921875 24.984375 Z M 2.085938 28.503906 L 2.984375 28.507812 C 2.71875 28.507812 2.28125 28.503906 2.085938 28.5 Z M 2.085938 28.503906 "/>
<path style=" stroke:none;fill-rule:nonzero;fill:rgb(0,0,0);fill-opacity:1;" d="M 3.945312 23.464844 L 3.792969 24.167969 Z M 5.167969 23.367188 L 4.070312 23.367188 C 4.011719 23.367188 3.964844 23.410156 3.949219 23.464844 L 3.640625 24.871094 L 3.597656 25.070312 L 3.304688 26.503906 C 3.289062 26.574219 3.273438 26.640625 3.253906 26.703125 C 3.253906 26.703125 3.046875 27.332031 2.703125 27.324219 L 2.363281 27.316406 C 2.304688 27.320312 2.253906 27.359375 2.238281 27.417969 L 2.011719 28.398438 C 2.003906 28.425781 2.007812 28.453125 2.023438 28.472656 C 2.039062 28.492188 2.0625 28.503906 2.089844 28.5 L 2.984375 28.507812 C 3.847656 28.507812 4.300781 28.019531 4.589844 26.605469 L 5.25 23.46875 C 5.261719 23.414062 5.226562 23.371094 5.171875 23.371094 Z M 20.742188 26.605469 C 20.6875 26.605469 20.65625 26.558594 20.664062 26.503906 L 21.488281 22.527344 M 21.890625 26.503906 L 22.222656 24.804688 Z M 21.890625 26.503906 "/>
<path style=" stroke:none;fill-rule:nonzero;fill:rgb(0,0,0);fill-opacity:1;" d="M 20.675781 26.554688 C 20.667969 26.527344 20.671875 26.457031 20.683594 26.402344 L 21.074219 24.515625 L 20.664062 26.503906 C 20.652344 26.558594 20.6875 26.605469 20.742188 26.605469 L 20.84375 26.605469 C 20.789062 26.605469 20.683594 26.582031 20.675781 26.554688 Z M 21.824219 26.582031 C 21.792969 26.59375 21.722656 26.605469 21.667969 26.605469 L 21.769531 26.605469 C 21.828125 26.601562 21.875 26.5625 21.890625 26.503906 L 21.910156 26.402344 C 21.898438 26.457031 21.851562 26.570312 21.820312 26.582031 Z M 22.054688 25.65625 L 22.203125 24.90625 Z M 25.308594 22.792969 L 25.355469 22.984375 C 25.367188 23.042969 25.332031 23.085938 25.277344 23.085938 "/>
<path style=" stroke:none;fill-rule:nonzero;fill:rgb(0,0,0);fill-opacity:1;" d="M 21.910156 26.402344 L 22.054688 25.65625 Z M 25.265625 22.589844 L 25.308594 22.789062 Z M 22.203125 24.90625 L 22.242188 24.707031 L 22.402344 23.945312 L 22.222656 24.804688 Z M 21.5 22.460938 L 21.46875 22.628906 L 21.078125 24.515625 L 21.488281 22.527344 Z M 21.5 22.460938 "/>
<path style=" stroke:none;fill-rule:nonzero;fill:rgb(0,0,0);fill-opacity:1;" d="M 25.355469 22.984375 L 25.308594 22.792969 L 25.242188 22.492188 C 25.152344 22.136719 24.890625 21.929688 24.324219 21.929688 L 21.710938 21.929688 C 21.652344 21.929688 21.605469 21.972656 21.589844 22.027344 L 21.550781 22.226562 L 21.492188 22.523438 L 20.6875 26.398438 C 20.675781 26.457031 20.671875 26.519531 20.679688 26.550781 C 20.6875 26.582031 20.792969 26.601562 20.847656 26.601562 L 21.671875 26.601562 C 21.726562 26.601562 21.796875 26.589844 21.828125 26.578125 C 21.855469 26.566406 21.902344 26.457031 21.914062 26.398438 L 22.226562 24.800781 L 22.5625 23.183594 C 22.574219 23.128906 22.628906 23.085938 22.683594 23.085938 L 25.285156 23.082031 C 25.339844 23.082031 25.375 23.039062 25.359375 22.984375 Z M 28.703125 21.238281 L 27.671875 21.238281 C 27.609375 21.242188 27.550781 21.273438 27.515625 21.324219 L 25.675781 24.101562 C 25.644531 24.148438 25.605469 24.140625 25.59375 24.085938 L 25.460938 23.472656 C 25.445312 23.414062 25.394531 23.375 25.335938 23.371094 L 24.15625 23.371094 C 24.097656 23.371094 24.066406 23.417969 24.082031 23.472656 L 24.609375 25.382812 C 24.625 25.4375 24.625 25.527344 24.613281 25.582031 L 24.378906 26.507812 C 24.371094 26.53125 24.375 26.558594 24.390625 26.578125 C 24.40625 26.597656 24.429688 26.609375 24.453125 26.609375 L 25.625 26.609375 C 25.679688 26.609375 25.734375 26.5625 25.75 26.507812 L 25.984375 25.582031 C 26.003906 25.519531 26.03125 25.457031 26.070312 25.402344 L 29.058594 21.320312 C 29.09375 21.273438 29.074219 21.238281 29.019531 21.238281 Z M 19.304688 23.632812 C 19.296875 23.691406 19.242188 23.738281 19.1875 23.738281 L 17.6875 23.738281 C 17.636719 23.738281 17.609375 23.703125 17.617188 23.65625 L 17.617188 23.648438 L 17.625 23.621094 C 17.773438 23.230469 18.058594 22.972656 18.609375 22.972656 C 19.226562 22.972656 19.347656 23.285156 19.304688 23.632812 Z M 18.863281 21.851562 C 16.941406 21.851562 16.484375 23.054688 16.226562 24.269531 C 15.972656 25.503906 15.996094 26.664062 17.984375 26.664062 L 18.300781 26.664062 L 18.542969 26.660156 L 19.8125 26.652344 C 19.871094 26.652344 19.917969 26.609375 19.929688 26.554688 L 20.125 25.585938 C 20.136719 25.527344 20.097656 25.484375 20.042969 25.484375 L 18.253906 25.484375 C 17.542969 25.484375 17.328125 25.289062 17.40625 24.714844 L 20.269531 24.714844 C 20.316406 24.714844 20.359375 24.683594 20.375 24.640625 C 20.378906 24.632812 20.382812 24.621094 20.382812 24.613281 C 20.808594 22.964844 20.6875 21.851562 18.867188 21.851562 Z M 9.765625 23.625 L 9.738281 23.726562 C 9.738281 23.726562 9.523438 24.515625 9.523438 24.515625 L 9.308594 25.300781 C 9.289062 25.359375 9.238281 25.398438 9.179688 25.402344 L 8.035156 25.402344 C 7.167969 25.402344 6.957031 24.703125 7.167969 23.671875 C 7.378906 22.617188 7.792969 21.960938 8.648438 21.894531 C 9.816406 21.804688 10.046875 22.652344 9.765625 23.625 Z M 10.550781 25.339844 C 10.550781 25.339844 11.089844 23.992188 11.214844 23.214844 C 11.378906 22.171875 10.875 20.660156 8.914062 20.660156 C 6.96875 20.660156 6.121094 22.101562 5.800781 23.675781 C 5.476562 25.253906 5.898438 26.640625 7.835938 26.632812 L 10.789062 26.621094 C 10.847656 26.617188 10.898438 26.578125 10.914062 26.519531 L 11.164062 25.542969 C 11.171875 25.519531 11.167969 25.492188 11.152344 25.472656 C 11.136719 25.453125 11.113281 25.441406 11.089844 25.441406 L 10.613281 25.441406 C 10.566406 25.441406 10.539062 25.410156 10.546875 25.367188 C 10.546875 25.359375 10.546875 25.351562 10.550781 25.34375 Z M 10.550781 25.339844 "/>
<path style=" stroke:none;fill-rule:nonzero;fill:rgb(0,0,0);fill-opacity:1;" d="M 20.191406 24.4375 C 20.191406 24.476562 20.160156 24.507812 20.125 24.507812 C 20.089844 24.507812 20.058594 24.476562 20.058594 24.4375 C 20.058594 24.402344 20.089844 24.371094 20.125 24.371094 C 20.160156 24.371094 20.191406 24.402344 20.191406 24.4375 Z M 20.191406 24.4375 "/>
</g>
</svg>
